# xmcd CD database file
#
# Track frame offsets:
#	150
#	16575
#	35562
#	56287
#	82937
#	108062
#	129062
#	147050
#	163735
#	184425
#	200637
#	220230
#
# Disc length: 3180 seconds
#
# Revision: 1
# Processed by: cddbd v1.5.1PL0 Copyright (c) Steve Scherf et al.
# Submitted via: CDex 1.51
#
DISCID=960c6a0c
DTITLE=Sarah Benck and The Robbers - Suicide Doublewide
DYEAR=2005
DGENRE=Blues
TTITLE0=Real Friend
TTITLE1=Nathaniel
TTITLE2=Last Night
TTITLE3=California
TTITLE4=Appreciation Blues
TTITLE5=Canadian Whiskey
TTITLE6=I Want It To Be You
TTITLE7=2 Days 2 Nights
TTITLE8=Forever
TTITLE9=Tidal Waves
TTITLE10=Lonely Road
TTITLE11=Downward Spiral
EXTD=YEAR: 2005
EXTT0=
EXTT1=
EXTT2=
EXTT3=
EXTT4=
EXTT5=
EXTT6=
EXTT7=
EXTT8=
EXTT9=
EXTT10=
EXTT11=
PLAYORDER=
